<?xml version="1.0" standalone="no"?>
<!DOCTYPE svg PUBLIC "-//W3C//DTD SVG 20010904//EN"
 "http://www.w3.org/TR/2001/REC-SVG-20010904/DTD/svg10.dtd">
<svg version="1.0" xmlns="http://www.w3.org/2000/svg"
 width="163.000000pt" height="163.000000pt" viewBox="0 0 163.000000 163.000000"
 preserveAspectRatio="xMidYMid meet">
<metadata>
Created by potrace 1.11, written by Peter Selinger 2001-2013
</metadata>
<g transform="translate(0.000000,163.000000) scale(0.100000,-0.100000)"
fill="#000000" stroke="none">
<path d="M0 815 l0 -755 815 0 815 0 0 755 0 755 -815 0 -815 0 0 -755z m1215
528 c127 -68 173 -209 111 -337 -17 -35 -42 -66 -66 -83 -39 -27 -40 -30 -40
-88 0 -58 2 -61 38 -87 57 -40 95 -116 94 -192 0 -33 -6 -77 -15 -97 -20 -49
-72 -106 -121 -132 -40 -21 -53 -22 -383 -25 l-343 -3 0 51 0 50 308 0 c177 0
322 4 344 10 45 13 95 68 104 115 7 40 -16 114 -42 136 -13 11 -18 10 -27 -6
-27 -50 -111 -124 -170 -151 l-62 -29 -343 -3 -342 -3 2 168 3 168 425 2 425
1 3 26 3 26 -428 2 -428 3 -3 168 -2 167 22 1 c13 1 165 0 338 -1 286 -2 319
-4 368 -22 70 -26 130 -73 167 -131 17 -25 35 -45 40 -44 6 2 20 21 33 43 40
68 19 145 -52 198 -26 20 -42 21 -367 24 l-340 3 5 47 c2 26 5 48 5 50 1 2
157 2 349 0 334 -3 349 -4 387 -25z"/>
<path d="M370 1036 l0 -66 355 0 c336 0 355 1 346 18 -15 27 -52 58 -101 84
-44 22 -54 23 -322 26 l-278 3 0 -65z"/>
<path d="M372 638 l3 -63 270 0 c259 0 272 1 315 22 25 13 63 41 85 63 l39 40
-357 0 -358 0 3 -62z"/>
</g>
</svg>
