<?xml version="1.0" standalone="no"?>
<!DOCTYPE svg PUBLIC "-//W3C//DTD SVG 20010904//EN"
 "http://www.w3.org/TR/2001/REC-SVG-20010904/DTD/svg10.dtd">
<svg version="1.0" xmlns="http://www.w3.org/2000/svg"
 width="163.000000pt" height="163.000000pt" viewBox="0 0 163.000000 163.000000"
 preserveAspectRatio="xMidYMid meet">
<metadata>
Created by potrace 1.11, written by Peter Selinger 2001-2013
</metadata>
<g transform="translate(0.000000,163.000000) scale(0.100000,-0.100000)"
fill="#000000" stroke="none">
<path d="M0 815 l0 -755 815 0 815 0 0 755 0 755 -815 0 -815 0 0 -755z m1199
532 c167 -91 199 -280 70 -409 -47 -47 -49 -51 -49 -104 0 -53 2 -57 49 -103
50 -49 81 -118 81 -182 0 -82 -62 -178 -145 -222 -38 -21 -54 -22 -372 -25
l-333 -3 0 50 0 51 323 0 c304 0 324 1 355 20 48 29 72 75 72 137 0 44 -5 58
-31 88 l-32 36 -28 -43 c-38 -58 -108 -112 -177 -139 -54 -20 -74 -22 -384
-23 l-328 -1 0 163 0 162 394 0 395 0 -10 -27 c-23 -66 -4 -62 -360 -65 l-324
-3 0 -65 0 -65 259 -3 c300 -3 335 3 409 68 51 45 87 123 87 190 l0 40 -425 0
-425 0 0 166 0 165 333 -3 c321 -3 334 -4 390 -26 36 -15 78 -44 115 -79 52
-50 55 -56 37 -63 -44 -18 -85 -10 -141 27 l-56 37 -157 7 c-86 4 -217 6 -291
5 l-135 -1 0 -70 0 -70 375 0 c295 0 384 3 417 14 119 39 127 216 13 273 -31
16 -71 18 -362 18 l-328 0 0 51 0 50 343 -3 c310 -3 345 -5 376 -21z"/>
</g>
</svg>
